<?xml version="1.0" encoding="UTF-8"?>
<svg width="60px" height="60px" viewBox="0 0 60 60" version="1.1" xmlns="http://www.w3.org/2000/svg" xmlns:xlink="http://www.w3.org/1999/xlink">
    <!-- Generator: Sketch 47.1 (45422) - http://www.bohemiancoding.com/sketch -->
    <title>Icon/60/_移动APP</title>
    <desc>Created with Sketch.</desc>
    <defs></defs>
    <g id="symbol" stroke="none" stroke-width="1" fill="none" fill-rule="evenodd">
        <g id="Icon/60/_移动APP">
            <g id="Icon/模板" stroke="#E41F2B" opacity="0">
                <g id="Group-2-Copy">
                    <g id="Group-100" opacity="0.15" stroke-width="0.5" stroke-linecap="square">
                        <path d="M0,0 L60,60 M60,0 L0,60" id="Diagonal"></path>
                        <path d="M3.1171875,0 L3.1171875,60 M18.6328125,0 L18.6328125,60 M30,0 L30,60 M41.3671875,0 L41.3671875,60 M56.8671875,0 L56.8671875,60" id="Vertical"></path>
                        <path d="M3.125,0 L3.125,60 M18.640625,0 L18.640625,60 M30.0078125,0 L30.0078125,60 M41.375,0 L41.375,60 M56.875,0 L56.875,60" id="Vertical" transform="translate(30.000000, 30.000000) rotate(-270.000000) translate(-30.000000, -30.000000) "></path>
                    </g>
                    <g id="Group" transform="translate(3.000000, 3.000000)" stroke-width="0.5" opacity="0.300000012">
                        <rect id="Rectangle-46-Copy-2" transform="translate(27.000000, 27.000000) rotate(-270.000000) translate(-27.000000, -27.000000) " x="7.25" y="0.25" width="39.5" height="53.5" rx="7.11111111"></rect>
                        <rect id="Rectangle-46-Copy-2" transform="translate(27.000000, 27.000000) rotate(-270.000000) translate(-27.000000, -27.000000) " x="3.75" y="3.75" width="46.5" height="46.5" rx="7.11111111"></rect>
                        <circle id="Oval-27" cx="27" cy="27" r="26.75"></circle>
                        <circle id="Oval-27" cx="27" cy="27" r="11.25"></circle>
                        <rect id="Rectangle-46-Copy" x="7.25" y="0.25" width="39.5" height="53.5" rx="7.11111111"></rect>
                    </g>
                </g>
            </g>
            <g id="ICON" transform="translate(12.000000, 6.000000)" stroke="#FFFFFF">
                <path d="M35,53 L35,4 C35,2.34314575 33.6568542,1 32,1 L4,1 C2.34314575,1 1,2.34314575 1,4 L1,50 C1,51.6568542 2.34314575,53 4,53 L35,53 Z" id="Rectangle-9" stroke-width="2"></path>
                <path d="M18.7412446,16.4103968 C18.284436,16.153274 17.7265394,16.153274 17.2697308,16.4103968 L9.27308183,20.9114518 C8.80140239,21.1769449 8.50933847,21.6759615 8.50883937,22.2172266 L8.50002039,31.7812209 C8.49952037,32.3234757 8.7917209,32.8237834 9.26426285,33.089762 L17.2587554,37.5896032 C17.715564,37.846726 18.2734606,37.846726 18.7302692,37.5896032 L26.7269182,33.0885482 C27.1985976,32.8230551 27.4906615,32.3240385 27.4911606,31.7827734 L27.4999796,22.2187791 C27.5004796,21.6765243 27.2082791,21.1762166 26.7357372,20.910238 L18.7412446,16.4103968 Z" id="Polygon-Copy"></path>
                <path d="M2,44.5 L34,44.5" id="Line" stroke-linecap="square"></path>
                <path d="M16,4.5 L20,4.5" id="Line-Copy" stroke-linecap="square"></path>
            </g>
        </g>
    </g>
</svg>