<?xml version="1.0" encoding="UTF-8"?>
<svg width="80px" height="80px" viewBox="0 0 80 80" version="1.1" xmlns="http://www.w3.org/2000/svg" xmlns:xlink="http://www.w3.org/1999/xlink">
    <!-- Generator: Sketch 47.1 (45422) - http://www.bohemiancoding.com/sketch -->
    <title>Icon/80/_基础软件</title>
    <desc>Created with Sketch.</desc>
    <defs>
        <path d="M28.3442731,29.3431563 C29.8418015,27.8375388 31.8795477,26.9937782 34.003091,27.0000345 C36.1394009,27.0000345 38.149388,27.8328712 39.6607909,29.3431563 C42.7797364,32.4632197 42.7797364,37.5396108 39.6607909,40.6596742 C38.1637198,42.1654258 36.1264087,43.0095755 34.003091,43.0039138 C31.87946,43.0095002 29.8418294,42.165385 28.3442731,40.6596742 C26.8380987,39.1628864 25.9938725,37.1253905 26.0000335,35.0019742 C26.0000335,32.8645463 26.8317522,30.8545592 28.3442731,29.3431563 L28.3442731,29.3431563 Z" id="path-1"></path>
    </defs>
    <g id="symbol" stroke="none" stroke-width="1" fill="none" fill-rule="evenodd">
        <g id="Icon/80/_基础软件">
            <g id="Icon/模板" stroke="#E41F2B" opacity="0">
                <g id="Group-2-Copy">
                    <g id="Group-100" opacity="0.15" stroke-width="0.5" stroke-linecap="square">
                        <path d="M0,0 L80,80 M80,0 L0,80" id="Diagonal"></path>
                        <path d="M4.15625,0 L4.15625,80 M24.84375,0 L24.84375,80 M40,0 L40,80 M55.15625,0 L55.15625,80 M75.8229167,0 L75.8229167,80" id="Vertical"></path>
                        <path d="M4.16666667,0 L4.16666667,80 M24.8541667,0 L24.8541667,80 M40.0104167,0 L40.0104167,80 M55.1666667,0 L55.1666667,80 M75.8333333,0 L75.8333333,80" id="Vertical" transform="translate(40.000000, 40.000000) rotate(-270.000000) translate(-40.000000, -40.000000) "></path>
                    </g>
                    <g id="Group" transform="translate(4.000000, 4.000000)" stroke-width="0.5" opacity="0.300000012">
                        <rect id="Rectangle-46-Copy-2" transform="translate(36.000000, 36.000000) rotate(-270.000000) translate(-36.000000, -36.000000) " x="9.58333333" y="0.25" width="52.8333333" height="71.5" rx="7.11111111"></rect>
                        <rect id="Rectangle-46-Copy-2" transform="translate(36.000000, 36.000000) rotate(-270.000000) translate(-36.000000, -36.000000) " x="4.91666667" y="4.91666667" width="62.1666667" height="62.1666667" rx="7.11111111"></rect>
                        <circle id="Oval-27" cx="36" cy="36" r="35.75"></circle>
                        <circle id="Oval-27" cx="36" cy="36" r="15.0833333"></circle>
                        <rect id="Rectangle-46-Copy" x="9.58333333" y="0.25" width="52.8333333" height="71.5" rx="7.11111111"></rect>
                    </g>
                </g>
            </g>
            <g id="基础软件-copy" transform="translate(6.000000, 5.000000)">
                <path d="M34,64 C49.9862905,64 63,50.9862905 63,35 C63,19.0079479 49.9893974,6 34,6 C18.0079479,6 5,19.0106026 5,35 C5,50.9920521 18.0106026,64 34,64 Z" id="Path" stroke="#252B3A" stroke-width="2"></path>
                <path d="M7.5,7.5 L61.5,62.5" id="Path-12" stroke="#333333"></path>
                <path d="M7.5,7.13532764 L62.4963574,62.2933312" id="Path-12" stroke="#333333" transform="translate(34.977208, 34.817664) scale(1, -1) translate(-34.977208, -34.817664) "></path>
                <path d="M61.8153792,0.824816919 L61.814817,0.825383843 C62.6576868,-0.0259288111 63.8049812,-0.503268655 64.9994424,-0.499985041 C66.2020879,-0.499985041 67.3343555,-0.0291189203 68.1846208,0.824816919 C69.9384597,2.59057535 69.9384597,5.44794069 68.1843163,7.21400545 C66.4785281,8.92842185 63.5243879,8.92882067 61.8153792,7.21369912 C60.0615403,5.44794069 60.0615403,2.59057535 61.8153792,0.824816919 Z" id="Path" stroke="#333333"></path>
                <path d="M1.81537921,0.824816919 L1.81481701,0.825383843 C2.65768675,-0.0259288111 3.80498121,-0.503268655 4.99944239,-0.499985041 C6.20208791,-0.499985041 7.33435553,-0.0291189203 8.18462079,0.824816919 C9.93845974,2.59057535 9.93845974,5.44794069 8.18431627,7.21400545 C6.47852806,8.92842185 3.52438792,8.92882067 1.81537921,7.21369912 C0.0615402648,5.44794069 0.0615402648,2.59057535 1.81537921,0.824816919 Z" id="Path" stroke="#333333"></path>
                <path d="M60.8153792,62.8248169 L60.814817,62.8253838 C61.6576868,61.9740712 62.8049812,61.4967313 63.9994424,61.500015 C65.2020879,61.500015 66.3343555,61.9708811 67.1846208,62.8248169 C68.9384597,64.5905754 68.9384597,67.4479407 67.1843163,69.2140055 C65.4785281,70.9284218 62.5243879,70.9288207 60.8153792,69.2136991 C59.0615403,67.4479407 59.0615403,64.5905754 60.8153792,62.8248169 Z" id="Path" stroke="#333333"></path>
                <path d="M0.815379205,62.8248169 L0.814817007,62.8253838 C1.65768675,61.9740712 2.80498121,61.4967313 3.99944239,61.500015 C5.20208791,61.500015 6.33435553,61.9708811 7.18462079,62.8248169 C8.93845974,64.5905754 8.93845974,67.4479407 7.18431627,69.2140055 C5.47852806,70.9284218 2.52438792,70.9288207 0.815379205,69.2136991 C-0.938459735,67.4479407 -0.938459735,64.5905754 0.815379205,62.8248169 Z" id="Path" stroke="#333333"></path>
                <g id="Path">
                    <use fill="#FFFFFF" fill-rule="evenodd" xlink:href="#path-1"></use>
                    <path stroke="#E41F2B" stroke-width="1" d="M28.6987775,29.6957561 L28.6976958,29.6968403 C27.2796493,31.1138388 26.5000335,32.9963324 26.5000314,35.0034249 C26.4942582,36.9931889 27.285347,38.9024406 28.6987852,40.3070821 C30.1021749,41.7181136 32.011679,42.5091507 34.0044242,42.5039156 C35.994171,42.5092211 37.9033216,41.7181741 39.3071742,40.3061841 C42.2309419,37.3813684 42.2309419,32.6214621 39.3073684,29.6968404 C37.8894451,28.2799658 36.0064642,27.5000345 34.0016179,27.5000324 C32.0116597,27.4941696 30.1021014,28.284852 28.6987775,29.6957561 Z"></path>
                </g>
            </g>
        </g>
    </g>
</svg>