<?xml version="1.0" encoding="UTF-8"?>
<svg width="80px" height="80px" viewBox="0 0 80 80" version="1.1" xmlns="http://www.w3.org/2000/svg" xmlns:xlink="http://www.w3.org/1999/xlink">
    <!-- Generator: Sketch 47.1 (45422) - http://www.bohemiancoding.com/sketch -->
    <title>Icon/80/_网站建设</title>
    <desc>Created with Sketch.</desc>
    <defs>
        <polygon id="path-1" points="10.25 15.5 13.75 15.5 13.75 19 10.25 19"></polygon>
        <polygon id="path-2" points="17.25 15.5 20.75 15.5 20.75 19 17.25 19"></polygon>
        <polygon id="path-3" points="24.25 15.5 27.75 15.5 27.75 19 24.25 19"></polygon>
    </defs>
    <g id="Page-1" stroke="none" stroke-width="1" fill="none" fill-rule="evenodd">
        <g id="Icon/80/_网站建设">
            <g id="Group">
                <g id="Icon/模板" stroke="#E41F2B" opacity="0">
                    <g id="Group-2-Copy">
                        <g id="Group-100" opacity="0.15" stroke-width="0.5" stroke-linecap="square">
                            <path d="M0,0 L80,80 M80,0 L0,80" id="Diagonal"></path>
                            <path d="M4.15625,0 L4.15625,80 M24.84375,0 L24.84375,80 M40,0 L40,80 M55.15625,0 L55.15625,80 M75.8229167,0 L75.8229167,80" id="Vertical"></path>
                            <path d="M4.16666667,0 L4.16666667,80 M24.8541667,0 L24.8541667,80 M40.0104167,0 L40.0104167,80 M55.1666667,0 L55.1666667,80 M75.8333333,0 L75.8333333,80" id="Vertical" transform="translate(40.000000, 40.000000) rotate(-270.000000) translate(-40.000000, -40.000000) "></path>
                        </g>
                        <g id="Group" transform="translate(4.000000, 4.000000)" stroke-width="0.5" opacity="0.300000012">
                            <rect id="Rectangle-46-Copy-2" transform="translate(36.000000, 36.000000) rotate(-270.000000) translate(-36.000000, -36.000000) " x="9.58333333" y="0.25" width="52.8333333" height="71.5" rx="7.11111111"></rect>
                            <rect id="Rectangle-46-Copy-2" transform="translate(36.000000, 36.000000) rotate(-270.000000) translate(-36.000000, -36.000000) " x="4.91666667" y="4.91666667" width="62.1666667" height="62.1666667" rx="7.11111111"></rect>
                            <circle id="Oval-27" cx="36" cy="36" r="35.75"></circle>
                            <circle id="Oval-27" cx="36" cy="36" r="15.0833333"></circle>
                            <rect id="Rectangle-46-Copy" x="9.58333333" y="0.25" width="52.8333333" height="71.5" rx="7.11111111"></rect>
                        </g>
                    </g>
                </g>
                <path d="M6,11 L6,69 L74,69 L74,11 L6,11 Z" id="Rectangle-20" stroke="#333333" stroke-width="2"></path>
                <path d="M6,24 L74,24" id="Line-3" stroke="#333333" stroke-linecap="square"></path>
                <g id="Rectangle-6">
                    <use fill="#D8D8D8" fill-rule="evenodd" xlink:href="#path-1"></use>
                    <path stroke="#333333" stroke-width="1" d="M10.75,16 L10.75,18.5 L13.25,18.5 L13.25,16 L10.75,16 Z"></path>
                </g>
                <g id="Rectangle-6">
                    <use fill="#D8D8D8" fill-rule="evenodd" xlink:href="#path-2"></use>
                    <path stroke="#333333" stroke-width="1" d="M17.75,16 L17.75,18.5 L20.25,18.5 L20.25,16 L17.75,16 Z"></path>
                </g>
                <g id="Rectangle-6">
                    <use fill="#D8D8D8" fill-rule="evenodd" xlink:href="#path-3"></use>
                    <path stroke="#333333" stroke-width="1" d="M24.75,16 L24.75,18.5 L27.25,18.5 L27.25,16 L24.75,16 Z"></path>
                </g>
                <polygon id="Rectangle-11" stroke="#E41F2B" fill-rule="nonzero" transform="translate(39.000000, 47.000000) rotate(45.000000) translate(-39.000000, -47.000000) " points="35 34 43 34 43 53.0602223 38.2542038 60 35.0696897 53.2088396 35 52.8961261"></polygon>
            </g>
        </g>
    </g>
</svg>