<?xml version="1.0" encoding="UTF-8"?>
<svg width="60px" height="60px" viewBox="0 0 60 60" version="1.1" xmlns="http://www.w3.org/2000/svg" xmlns:xlink="http://www.w3.org/1999/xlink">
    <!-- Generator: Sketch 47.1 (45422) - http://www.bohemiancoding.com/sketch -->
    <title>Artboard</title>
    <desc>Created with Sketch.</desc>
    <defs></defs>
    <g id="symbol" stroke="none" stroke-width="1" fill="none" fill-rule="evenodd">
        <g id="Artboard" fill-rule="nonzero" fill="#FFFFFF">
            <g id="Game" transform="translate(2.000000, 11.000000)">
                <path d="M48.2616825,36.2039686 C47.84362,36.3007033 47.4229445,36.3497332 47.0114143,36.3497332 C44.3501852,36.3497332 41.7355989,34.5823901 39.8216566,30.9011695 L39.4545455,30.1935484 L16.156706,30.1935484 L15.7895949,30.9011695 C13.6130569,35.088591 10.8999591,36.8002786 7.74489366,36.0714553 C3.43101121,35.074955 1.39818228,26.3966566 3.39181784,17.498386 C5.26134109,9.17257313 10.0233343,2.65026673 14.235314,2.65026673 C14.5188126,2.65026673 14.7996985,2.68206993 15.0714391,2.74435119 C16.4993837,3.07298427 17.7627164,4.3126805 18.7046635,5.5 L19.096597,6 L36.909979,6 L37.3019127,5.5 C38.2477791,4.31135537 39.5124181,3.07165914 40.9364435,2.74435119 C45.179778,1.76905303 50.6237357,8.88369407 52.6160647,17.7634128 C54.5953293,26.5941015 52.561194,35.2114438 48.2616825,36.2039686 Z M41.7399074,0.300003052 C41.2735064,0.300003052 40.8084119,0.395314465 40.3589947,0.5 C38.3849558,0.95319561 36.8069386,2.59933403 35.6363636,4 L20.3065342,4 C19.1385721,2.59933403 17.6281526,0.954520743 15.6515007,0.5 C15.1890191,0.393989331 14.713473,0.300003052 14.235314,0.300003052 C8.67508273,0.300003052 3.29875359,7.11199076 1.1000061,16.9100269 C-1.28295017,27.5455473 1.29627955,37.2998539 7.16613838,38.6554653 C7.79715147,38.80123 8.43730968,38.8754375 9.06701633,38.8754375 C11.5296658,38.8754375 14.6009979,37.4110424 17.5,32.3000031 L38.1818182,32.3000031 C40.5099038,36.39334 43.5650115,39 47.0114143,39 C47.6189113,39 48.2342471,38.9284428 48.8404378,38.7879786 C54.6972322,37.4350176 57.3685853,27.7403418 55,17.1750535 C52.8038654,7.38629336 47.1969296,0.300003052 41.7399074,0.300003052 Z" id="Fill-1"></path>
                <path d="M41.3630724,11.3225806 C40.3072916,11.3225806 39.4545455,12.168232 39.4545455,13.2091196 C39.4545455,14.2511227 40.3072916,15.0967742 41.3630724,15.0967742 C42.4165972,15.0967742 43.2727273,14.2511227 43.2727273,13.2091196 C43.2727273,12.168232 42.4165972,11.3225806 41.3630724,11.3225806" id="Fill-2"></path>
                <path d="M41.3630724,18.8709677 C40.3072916,18.8709677 39.4545455,19.7157533 39.4545455,20.7580645 C39.4545455,21.8014918 40.3072916,22.6451613 41.3630724,22.6451613 C42.4165972,22.6451613 43.2727273,21.8014918 43.2727273,20.7580645 C43.2727273,19.7157533 42.4165972,18.8709677 41.3630724,18.8709677" id="Fill-3"></path>
                <path d="M37.5465828,15.0967742 C36.49049,15.0967742 35.6363636,15.9424257 35.6363636,16.9833131 C35.6363636,18.0264319 36.49049,18.8709677 37.5465828,18.8709677 C38.6004191,18.8709677 39.4545455,18.0264319 39.4545455,16.9833131 C39.4545455,15.9424257 38.6004191,15.0967742 37.5465828,15.0967742" id="Fill-4"></path>
                <path d="M45.1818182,15.0967742 C44.1251009,15.0967742 43.2727273,15.9424257 43.2727273,16.9833131 C43.2727273,18.0264319 44.1251009,18.8709677 45.1818182,18.8709677 C46.2351487,18.8709677 47.0909091,18.0264319 47.0909091,16.9833131 C47.0909091,15.9424257 46.2351487,15.0967742 45.1818182,15.0967742" id="Fill-5"></path>
                <path d="M24.2174381,16.3493764 C22.0859053,16.3493764 19.9556513,16.3493764 17.8241185,16.3493764 C17.8241185,14.2422871 17.8241185,12.1351977 17.8241185,10.0293724 C17.8241185,8.39881136 15.2667906,8.39881136 15.2667906,10.0293724 C15.2667906,12.1351977 15.2667906,14.2422871 15.2667906,16.3493764 C13.1352578,16.3493764 11.0050037,16.3493764 8.87347099,16.3493764 C7.22399451,16.3493764 7.22399451,18.8773781 8.87347099,18.8773781 C11.0050037,18.8773781 13.1352578,18.8773781 15.2667906,18.8773781 C15.2667906,20.9832033 15.2667906,23.0902927 15.2667906,25.1973821 C15.2667906,26.8266791 17.8241185,26.8266791 17.8241185,25.1973821 C17.8241185,23.0902927 17.8241185,20.9832033 17.8241185,18.8773781 C19.9556513,18.8773781 22.0859053,18.8773781 24.2174381,18.8773781 C25.8669146,18.8773781 25.8669146,16.3493764 24.2174381,16.3493764" id="Fill-6"></path>
            </g>
        </g>
    </g>
</svg>